<svg xmlns="http://www.w3.org/2000/svg" width="315.997" height="280.89" viewBox="0 0 315.997 280.89">
  <path id="hammer-solid" d="M313.427,106.4,301.012,93.982a8.778,8.778,0,0,0-12.415,0l-6.2,6.2L266.537,84.332a34.964,34.964,0,0,0-8.97-33.8L232.743,25.708a87.785,87.785,0,0,0-124.139,0l49.655,24.825V60.819a35.091,35.091,0,0,0,10.286,24.825L195.5,112.6a34.964,34.964,0,0,0,33.8,8.97l15.855,15.855-6.2,6.2a8.778,8.778,0,0,0,0,12.415l12.415,12.415a8.778,8.778,0,0,0,12.415,0l49.655-49.655a8.781,8.781,0,0,0-.011-12.41Zm-157.3-8.339a53.243,53.243,0,0,1-5.4-6.556L10.776,222.165a33.925,33.925,0,1,0,47.948,47.948l130.64-139.934a53.341,53.341,0,0,1-6.276-5.162L156.13,98.058Z" transform="translate(-0.003)" fill="#fafafa"/>
</svg>
