<?xml version="1.0" standalone="no"?>
<!DOCTYPE svg PUBLIC "-//W3C//DTD SVG 20010904//EN"
 "http://www.w3.org/TR/2001/REC-SVG-20010904/DTD/svg10.dtd">
<svg version="1.0" xmlns="http://www.w3.org/2000/svg"
 width="1280.000000pt" height="665.000000pt" viewBox="0 0 1280.000000 665.000000"
 preserveAspectRatio="xMidYMid meet">
<metadata>
Created by potrace 1.15, written by Peter Selinger 2001-2017
</metadata>
<g transform="translate(0.000000,665.000000) scale(0.100000,-0.100000)"
fill="#000000" stroke="none">
<path d="M1161 6639 c-47 -5 -98 -16 -114 -24 -17 -8 -48 -15 -70 -15 -32 0
-38 -3 -33 -16 3 -9 6 -18 6 -20 0 -2 25 -4 56 -4 34 0 53 -4 49 -10 -3 -5
-15 -10 -26 -10 -12 0 -19 -5 -16 -12 2 -9 30 -13 85 -14 l81 -2 468 -448
c257 -247 506 -485 553 -529 183 -175 473 -438 642 -583 97 -83 179 -156 182
-161 8 -12 -2 -15 -174 -46 -176 -32 -434 -93 -593 -141 -65 -20 -121 -34
-124 -30 -6 5 24 457 31 463 2 2 74 5 160 7 87 3 160 6 162 9 10 9 -23 25 -66
31 -25 4 -91 9 -147 13 l-103 6 0 89 0 89 -47 22 c-46 21 -60 22 -365 22 -278
0 -319 -2 -333 -16 -9 -9 -48 -99 -86 -200 -121 -318 -141 -369 -148 -369 -3
0 -30 78 -58 173 -28 94 -83 276 -123 402 -105 338 -180 599 -174 605 3 3 122
6 265 8 142 2 259 7 259 12 0 10 -50 15 -300 30 -253 16 -256 17 -278 48 -10
15 -31 62 -46 104 -33 91 -52 114 -108 128 -53 15 -602 10 -617 -5 -7 -7 -7
-50 -1 -130 5 -66 26 -361 45 -655 19 -294 42 -625 50 -735 19 -263 44 -689
70 -1180 2 -55 1 -161 -3 -235 -5 -74 -5 -140 0 -146 4 -5 9 -57 10 -114 l3
-104 99 -72 c55 -39 123 -86 153 -104 54 -33 55 -33 89 -17 32 16 124 24 136
12 3 -3 1 -31 -5 -62 -8 -49 -7 -58 8 -69 15 -11 17 -23 11 -81 -3 -37 -3 -73
1 -79 15 -22 56 -36 142 -50 114 -18 111 -19 111 17 0 50 23 29 40 -37 8 -32
20 -65 27 -72 7 -7 13 -19 13 -27 0 -7 8 -22 18 -34 14 -18 67 -31 313 -80
517 -104 729 -142 767 -139 35 3 37 5 118 153 46 83 89 157 96 167 11 14 51
17 319 22 l305 6 42 -38 c23 -21 56 -46 74 -54 18 -9 87 -43 153 -76 204 -102
356 -145 448 -128 47 9 128 82 169 154 18 31 42 72 55 91 13 19 23 43 23 54 0
20 4 20 223 13 418 -13 1093 -65 1244 -96 199 -41 687 -106 1023 -136 153 -13
195 -20 245 -42 82 -35 965 -470 980 -482 10 -8 7 -28 -11 -88 -39 -125 -37
-128 66 -134 l55 -3 44 68 c40 62 47 68 70 62 27 -7 149 -58 566 -235 481
-204 1128 -468 1630 -665 474 -185 547 -213 1005 -385 223 -84 409 -156 415
-161 5 -6 2 -9 -8 -9 -10 0 -20 -7 -23 -15 -4 -8 -16 -15 -28 -15 -11 0 -28
-4 -35 -9 -17 -11 8 -19 74 -23 30 -2 42 -8 50 -26 8 -19 17 -22 60 -22 81 0
124 10 130 31 7 22 51 26 58 7 7 -23 849 1 873 25 3 3 3 15 -1 27 -5 14 -43
39 -121 78 -63 31 -114 62 -114 68 0 6 -80 49 -177 97 -1357 657 -1774 868
-2308 1167 -145 81 -702 406 -923 539 l-144 85 106 17 c59 10 137 26 174 37
37 12 119 30 182 42 161 30 322 72 483 125 126 41 161 48 425 80 676 84 998
118 1498 159 l531 44 64 32 c138 70 292 207 343 308 13 26 38 57 55 70 37 27
71 127 71 211 0 32 8 82 17 112 14 44 17 85 15 224 -4 252 -22 309 -151 495
-203 291 -371 431 -741 616 -393 196 -713 258 -1205 234 -395 -20 -376 -16
-890 -177 -513 -161 -930 -298 -1200 -396 -230 -83 -465 -155 -730 -222 -392
-100 -543 -124 -870 -141 l-130 -6 -20 63 c-27 89 -141 316 -212 424 -132 200
-324 399 -445 459 l-71 36 -156 0 c-86 0 -199 -5 -251 -12 -52 -6 -147 -10
-210 -9 -105 2 -310 -10 -452 -25 l-58 -7 14 39 c8 23 20 40 32 43 20 4 43 29
44 47 0 8 -50 10 -171 6 -128 -4 -170 -2 -165 7 4 6 14 11 22 11 8 0 14 5 14
10 0 6 -27 10 -60 10 -56 0 -75 -10 -49 -26 8 -5 8 -8 0 -14 -7 -4 6 -12 29
-19 45 -13 44 -8 15 -91 -15 -43 -23 -44 -277 -55 l-177 -7 -629 420 c-714
476 -1186 797 -1639 1113 -280 196 -316 219 -360 223 -98 11 -401 13 -482 5z"/>
</g>
</svg>
